<?xml version="1.0" encoding="UTF-8" standalone="no"?>
<svg
   id="Layer_1"
   data-name="Layer 1"
   viewBox="0 0 322.3813 55.869142"
   version="1.1"
   sodipodi:docname="verivote_logo_dark.svg"
   xml:space="preserve"
   width="322.38129"
   height="55.869141"
   inkscape:version="1.3.2 (091e20e, 2023-11-25, custom)"
   xmlns:inkscape="http://www.inkscape.org/namespaces/inkscape"
   xmlns:sodipodi="http://sodipodi.sourceforge.net/DTD/sodipodi-0.dtd"
   xmlns="http://www.w3.org/2000/svg"
   xmlns:svg="http://www.w3.org/2000/svg"><sodipodi:namedview
     id="namedview6"
     pagecolor="#505050"
     bordercolor="#eeeeee"
     borderopacity="1"
     inkscape:showpageshadow="0"
     inkscape:pageopacity="0"
     inkscape:pagecheckerboard="0"
     inkscape:deskcolor="#505050"
     inkscape:zoom="2.0000001"
     inkscape:cx="83.499998"
     inkscape:cy="12.75"
     inkscape:window-width="1920"
     inkscape:window-height="1009"
     inkscape:window-x="-8"
     inkscape:window-y="-8"
     inkscape:window-maximized="1"
     inkscape:current-layer="Layer_1" /><defs
     id="defs1"><style
       id="style1">.cls-1{fill:#3cc;}</style></defs><g
     id="g20"><path
       style="fill:#12d4ae;fill-opacity:1;stroke:none;stroke-width:8.1;stroke-opacity:0"
       d="m 266.5122,21.3418 27.9355,34.52734 h -27.9355 z"
       id="path1" /><path
       style="fill:#12d4ae;fill-opacity:1;stroke:none;stroke-width:8.1;stroke-opacity:0"
       d="M 322.3813,21.34277 V 55.86816 H 294.4477 Z"
       id="path2" /><path
       style="fill:#12d4ae;fill-opacity:1;stroke:none;stroke-width:8.1;stroke-opacity:0"
       d="m 266.5122,21.3418 h 17.2656 L 294.4477,34.52734 322.3813,0 h -55.8691 z"
       id="path5" /></g><path
     style="font-weight:bold;font-size:49.6012px;font-family:Jost;-inkscape-font-specification:'Jost Bold';text-align:end;text-anchor:end;stroke-width:5.85842;fill:#e5e5e5;fill-opacity:1"
     d="M 18.255136,31.307452 9.7733312,10.57415 H 0.00189479 L 18.255136,47.477443 36.557979,10.57415 H 26.736942 Z M 45.734232,45.29499 H 63.243456 V 38.400423 H 45.734232 Z m 0,-27.826273 H 63.243456 V 10.57415 H 45.734232 Z m 0,12.945913 h 16.5172 v -6.745763 h -16.5172 z M 40.178898,10.57415 v 34.72084 h 8.035394 V 10.57415 Z M 78.768665,29.57141 88.4905,45.29499 h 9.821038 L 87.448875,29.57141 Z m -8.68021,-18.99726 v 34.72084 h 8.382603 V 10.57415 Z m 5.257727,7.092971 h 6.795365 q 1.686441,0 2.876869,0.545614 1.24003,0.545613 1.884846,1.587238 0.644816,0.992024 0.644816,2.430459 0,1.438435 -0.644816,2.48006 -0.644816,0.992024 -1.884846,1.537637 -1.190428,0.496012 -2.876869,0.496012 h -6.795365 v 6.497757 h 7.390579 q 4.464108,0 7.44018,-1.438434 2.976072,-1.438435 4.513709,-3.968096 1.537638,-2.579263 1.537638,-5.902543 0,-3.372882 -1.537638,-5.902543 -1.537637,-2.579263 -4.513709,-4.017697 -2.976072,-1.438435 -7.44018,-1.438435 H 75.346182 Z M 102.1804,10.57415 v 34.72084 h 8.5314 V 10.57415 Z m 30.40552,20.733302 -8.48181,-20.733302 h -9.77144 l 18.25325,36.903293 18.30284,-36.903293 h -9.82104 z m 28.07433,-3.372882 q 0,-3.075274 1.19043,-5.406531 1.24003,-2.380858 3.42248,-3.72009 2.23206,-1.339232 5.20813,-1.339232 3.02567,0 5.20813,1.339232 2.18245,1.339232 3.37288,3.72009 1.19043,2.331257 1.19043,5.406531 0,3.075274 -1.24003,5.456132 -1.19043,2.331256 -3.42249,3.670489 -2.18245,1.339232 -5.10892,1.339232 -2.97607,0 -5.20813,-1.339232 -2.18245,-1.339233 -3.42248,-3.670489 -1.19043,-2.380858 -1.19043,-5.456132 z m -8.87861,0 q 0,4.017697 1.33923,7.390579 1.38883,3.372881 3.86889,5.852941 2.52967,2.48006 5.95215,3.868894 3.42248,1.339232 7.53938,1.339232 4.0673,0 7.48978,-1.339232 3.42248,-1.388834 5.90254,-3.868894 2.52967,-2.48006 3.8689,-5.852941 1.38883,-3.372882 1.38883,-7.390579 0,-4.017697 -1.38883,-7.340978 -1.38884,-3.32328 -3.9185,-5.753739 -2.52966,-2.430459 -5.95214,-3.720091 -3.37288,-1.3392316 -7.39058,-1.3392316 -3.9681,0 -7.39058,1.3392316 -3.42248,1.289632 -5.95214,3.720091 -2.52966,2.430459 -3.9681,5.753739 -1.38883,3.323281 -1.38883,7.340978 z m 37.74644,-9.870639 h 9.52343 V 45.29499 h 8.38261 V 18.063931 h 9.57303 V 10.57415 h -27.47907 z m 36.85373,27.231059 h 17.50923 v -6.894567 h -17.50923 z m 0,-27.826273 h 17.50923 V 10.57415 h -17.50923 z m 0,12.945913 h 16.5172 v -6.745763 h -16.5172 z m -5.55533,-19.84048 v 34.72084 h 8.03539 V 10.57415 Z"
     id="text77"
     aria-label="VERIVOTE" /></svg>
