<?xml version="1.0" encoding="UTF-8" standalone="no"?>
<svg
   data-name="Layer 1"
   width="695.30725"
   height="469.539"
   viewBox="0 0 695.30727 469.53902"
   version="1.1"
   id="svg35"
   sodipodi:docname="undraw_feedback_re_urmj.svg"
   inkscape:version="1.3.2 (091e20e, 2023-11-25, custom)"
   xmlns:inkscape="http://www.inkscape.org/namespaces/inkscape"
   xmlns:sodipodi="http://sodipodi.sourceforge.net/DTD/sodipodi-0.dtd"
   xmlns="http://www.w3.org/2000/svg"
   xmlns:svg="http://www.w3.org/2000/svg">
  <defs
     id="defs35" />
  <sodipodi:namedview
     id="namedview35"
     pagecolor="#505050"
     bordercolor="#eeeeee"
     borderopacity="1"
     inkscape:showpageshadow="0"
     inkscape:pageopacity="0"
     inkscape:pagecheckerboard="0"
     inkscape:deskcolor="#505050"
     inkscape:zoom="0.67556541"
     inkscape:cx="20.723382"
     inkscape:cy="486.25936"
     inkscape:window-width="1920"
     inkscape:window-height="1009"
     inkscape:window-x="-8"
     inkscape:window-y="-8"
     inkscape:window-maximized="1"
     inkscape:current-layer="svg35" />
  <path
     d="M 262.06141,455.68901 H 27.00831 a 7.90878,7.90878 0 0 1 -7.89963,-7.89963 V 413.364 a 7.90879,7.90879 0 0 1 7.89963,-7.89964 h 235.0531 a 7.9088,7.9088 0 0 1 7.89964,7.89964 v 34.42538 a 7.90879,7.90879 0 0 1 -7.89964,7.89963 z"
     fill="#f0f0f0"
     id="path11" />
  <path
     d="M 239.2231,450.36058 H 32.33798 a 7.9088,7.9088 0 0 1 -7.89964,-7.89964 v -23.7643 a 7.9088,7.9088 0 0 1 7.89964,-7.89964 h 224.395 a 7.90879,7.90879 0 0 1 7.89964,7.89964 v 6.25441 a 25.43817,25.43817 0 0 1 -25.40952,25.40953 z"
     fill="#ffffff"
     id="path12" />
  <path
     d="M 167.85972,428.12774 H 73.38631 a 2.03732,2.03732 0 1 1 0,-4.07464 h 94.47342 a 2.03732,2.03732 0 0 1 0,4.07464 z"
     fill="#e6e6e6"
     id="path13" />
  <path
     d="M 215.68383,436.46045 H 73.38631 a 2.03733,2.03733 0 1 1 0,-4.07465 h 142.29752 a 2.03733,2.03733 0 0 1 0,4.07465 z"
     fill="#e6e6e6"
     id="path14" />
  <path
     d="M 277.07631,366.07669 H 9.06622 A 8.07557,8.07557 0 0 1 0.99986,358.01033 V 153.14275 a 8.07531,8.07531 0 0 1 8.06636,-8.06606 h 268.01009 a 8.07531,8.07531 0 0 1 8.06636,8.06606 v 204.86758 a 8.07557,8.07557 0 0 1 -8.06636,8.06636 z"
     fill="#ffffff"
     id="path15" />
  <path
     d="M 277.07617,367.07669 H 9.0664 A 9.077,9.077 0 0 1 0,358.01028 v -204.8677 a 9.07652,9.07652 0 0 1 9.0664,-9.06592 h 268.00977 a 9.07652,9.07652 0 0 1 9.0664,9.06592 v 204.8677 a 9.077,9.077 0 0 1 -9.0664,9.06641 z m -268.00977,-221 A 7.07423,7.07423 0 0 0 2,153.14261 v 204.86767 a 7.07434,7.07434 0 0 0 7.0664,7.06641 h 268.00977 a 7.07434,7.07434 0 0 0 7.0664,-7.06641 v -204.8677 a 7.07423,7.07423 0 0 0 -7.0664,-7.06592 z"
     fill="#f0f0f0"
     id="path16" />
  <path
     d="m 1.6189,327.07669 v 30.93379 a 7.45829,7.45829 0 0 0 7.44716,7.44716 H 277.0765 a 7.45829,7.45829 0 0 0 7.44717,-7.44716 v -30.93379 z"
     fill="#f0f0f0"
     id="path17" />
  <rect
     x="-123.04522"
     y="82.418266"
     width="1.99962"
     height="333.5596"
     transform="rotate(-57.37135)"
     fill="#f0f0f0"
     id="rect17" />
  <rect
     x="-172.65266"
     y="276.83011"
     width="333.5596"
     height="1.99962"
     transform="rotate(-32.62865)"
     fill="#f0f0f0"
     id="rect18" />
  <polygon
     points="532.974,587.787 527.079,539.998 545.366,539.999 545.364,587.788 "
     fill="#a0616a"
     id="polygon18"
     transform="translate(-23.20172,-132.17929)" />
  <path
     d="m 521.83189,451.55958 -13.22,-5.37 -0.39,-0.16 -7.3,5.53 a 15.54249,15.54249 0 0 0 -15.53,14.87 c -0.02,0.22 -0.02,0.45 -0.02,0.68 v 0.51 h 39.95 v -16.06 z"
     fill="#2f2e41"
     id="path18" />
  <polygon
     points="504.66,580.37 483.238,537.245 500.488,531.177 516.348,576.258 "
     fill="#a0616a"
     id="polygon19"
     transform="translate(-23.20172,-132.17929)" />
  <path
     d="m 491.4912,440.36856 -14.2529,-0.67773 -0.421,-0.0215 -5.05069,7.63948 a 15.54248,15.54248 0 0 0 -9.71416,19.1816 c 0.0541,0.21415 0.13048,0.43115 0.20682,0.64809 l 0.16927,0.4811 37.68529,-13.2598 -5.33052,-15.14958 z"
     fill="#2f2e41"
     id="path19" />
  <path
     d="m 526.54043,249.55041 c 11.33506,-0.43955 -2.70631,89.88978 -2.70631,89.88978 0,0 4.10734,79.30546 3.23671,83.46726 -0.87063,4.1618 -0.10978,15.38636 -0.10978,15.38636 -2.22075,-4.04192 -25.13224,-0.9914 -25.13224,-0.9914 l -3.11682,-80.37587 -15.91342,-64.39953 -22.06224,43.168 21.14563,66.26061 c 0,0 8.56336,7.92394 7.65278,11.0553 -0.91058,3.13136 -23.341,10.19318 -27.46279,10.353 -4.12179,0.15982 -2.26071,-5.07241 -2.46051,-10.22468 -0.1998,-5.15227 -19.59569,-52.90457 -26.41781,-69.1522 -6.82212,-16.24763 -1.51846,-39.15745 1.964,-55.80468 3.48246,-16.64723 21.80339,-47.88859 21.80339,-47.88859 22.74157,-25.65008 58.24434,9.6962 69.57941,9.25664 z"
     fill="#2f2e41"
     id="path20" />
  <path
     d="m 388.40297,176.55224 a 9.15861,9.15861 0 0 0 13.72045,2.99545 l 27.25821,17.784 -0.083,-16.91272 -25.87216,-14.29508 a 9.20824,9.20824 0 0 0 -15.0235,10.42835 z"
     fill="#a0616a"
     id="path21" />
  <path
     d="m 520.65343,264.03111 c -28.10986,10e-4 -43.60059,-5.626 -51.82666,-10.65039 -10.05859,-6.14356 -11.77978,-12.62207 -11.84814,-12.89551 l -0.02,-0.0781 0.979,-12.32032 0.42822,-0.959 a 19.50463,19.50463 0 0 0 0.73438,-14.00684 l -0.0308,-0.0947 0.008,-0.0986 6.57275,-85.24462 23.25977,-7.61915 6.7666,-6.79882 30.12744,-0.437 4.19776,8.51025 23.751,8.94141 -11.66851,69.45655 -5.59375,9.6416 2.25097,10.5029 -0.0156,0.0947 -7.33838,43.7998 -0.40381,0.0176 q -5.4287,0.2432 -10.33007,0.23831 z"
     fill="#3f3d56"
     id="path22" />
  <path
     d="m 447.93131,210.84947 -11.02783,-6.53809 -0.69092,-0.998 a 15.7342,15.7342 0 0 0 -12.4541,-6.74805 l -0.12842,-0.004 -15.18852,-8.92973 6.2959,-18.44336 23.81,7.03418 16.59961,-41.24463 a 13.19911,13.19911 0 0 1 23.47559,-2.00635 13.62434,13.62434 0 0 1 1.96728,7.20508 v 26.9873 l -0.0996,0.13379 z"
     fill="#3f3d56"
     id="path23" />
  <path
     d="m 521.65839,248.16833 a 9.15863,9.15863 0 0 1 12.18666,-6.97916 l 20.656,-25.15175 5.002,16.15634 -20.38215,21.40758 a 9.20824,9.20824 0 0 1 -17.46248,-5.433 z"
     fill="#a0616a"
     id="path24" />
  <path
     d="m 552.54259,244.99009 -13.71628,-13.71777 8.73145,-21.27441 12.65381,-17.27832 c -13.48389,-6.56446 -23.60547,-22.11524 -30.93946,-34.98828 l -0.0825,-0.14454 1.82618,-14.30371 a 18.367,18.367 0 0 1 3.87353,-9.14306 18.36952,18.36952 0 0 1 29.90869,1.709 l 24.5918,54.66846 -0.27686,0.41308 -19.78027,33.71875 -5.39844,3.501 z"
     fill="#3f3d56"
     id="path25" />
  <path
     d="m 532.37136,84.15342 a 25.10467,25.10467 0 0 1 -49.75065,-6.771086 l 0.0485,-0.35635 a 25.10467,25.10467 0 0 1 49.69445,7.126386 z"
     fill="#a0616a"
     id="path26" />
  <path
     d="m 525.98189,97.084169 c 1.28921,-2.61883 2.61359,-5.430449 2.25128,-8.326839 -0.36231,-2.89639 -3.20276,-5.66484 -5.99192,-4.80406 -1.66786,0.51473 -2.92844,2.16171 -4.67189,2.246 -2.39885,0.116 -3.77423,-2.62948 -4.5209,-4.912106 l -3.041,-9.29657 a 25.15357,25.15357 0 0 1 -20.89111,4.72079 c -2.82347,-0.64554 -5.67592,-1.90416 -7.33216,-4.28021 -1.65624,-2.37605 -1.64627,-6.0617 0.6254,-7.85842 1.11387,-0.881 2.59642,-1.2157 3.66088,-2.15577 a 4.10217,4.10217 0 0 0 -3.27565,-7.13851 l 7.65693,-0.957 -2.28138,-4.12614 a 7.535,7.535 0 0 0 5.99172,1.0992 c 2.06,-0.37093 4.0002,-1.21914 6.01549,-1.78479 a 23.15188,23.15188 0 0 1 25.75441,10.81464 9.80176,9.80176 0 0 1 10.687,3.08588 c 2.04974,2.60156 2.60717,6.07331 2.68659,9.38439 a 40.71463,40.71463 0 0 1 -4.15033,18.860116 15.45115,15.45115 0 0 1 -3.48657,4.945769 6.97822,6.97822 0 0 1 -5.60143,1.831835"
     fill="#2f2e41"
     id="path27" />
  <path
     d="m 119.1715,71.253964 a 38.99224,38.99224 0 0 0 5.03952,16.615916 c 6.12735,10.760994 16.635,18.55205 27.952,23.183 14.13887,5.78576 29.89994,5.964 44.905,4.67391 13.93671,-1.19822 27.73161,-3.9757 41.71968,-4.54814 a 290.67425,290.67425 0 0 1 32.435,0.77368 c 20.93161,1.48566 41.77624,4.2422 62.48665,7.58393 q 8.41338,1.34092 16.79136,2.8814 a 8.30457,8.30457 0 0 1 1.55945,0.28974 c 0.10141,0.0416 0.26448,0.009 0.35732,0.0675 0.16859,0.10618 -0.682,-0.26919 -0.16638,0.15694 a 15.47381,15.47381 0 0 1 1.91221,2.46082 l 7.64885,9.84331 c 2.19349,2.82282 4.22918,6.25235 7.064,8.4773 a 12.79059,12.79059 0 0 0 14.15922,0.98683 14.14994,14.14994 0 0 0 5.26533,-5.981 51.61658,51.61658 0 0 1 6.26129,-9.03759 c 9.09984,-10.61576 21.74694,-17.14527 32.32494,-26.07738 a 57.57506,57.57506 0 0 0 12.92811,-14.77806 41.79039,41.79039 0 0 0 5.34147,-16.594896 c 1.26668,-11.87124 -2.37608,-23.97752 -8.50294,-34.07663 a 68.07168,68.07168 0 0 0 -27.63411,-25.2936 C 396.21747,6.3387538 382.05147,3.1618139 367.85135,1.5786639 352.77492,-0.10219616 337.52322,-0.09695616 322.3732,0.07274384 q -25.50363,0.28389 -50.91513,2.24306006 -25.44586,1.9695599 -50.69115,5.5991598 c -16.14935,2.3218503 -32.496,4.7418803 -48.30385,8.8502203 -13.96486,3.62937 -27.89045,9.30228 -38.31857,19.58089 -9.272,9.13914 -15.72087,21.64546 -14.973,34.90786 z"
     fill="#12d4ae"
     id="path28" />
  <path
     d="m 197.23187,75.030384 a 5.00673,5.00673 0 0 1 -4.74267,-5.62432 l 0.35883,-2.82483 a 3.37273,3.37273 0 0 0 -1.0977,-2.937 l -2.12184,-1.896 a 4.99256,4.99256 0 0 1 2.395,-8.62841 l 2.79727,-0.53131 a 3.36716,3.36716 0 0 0 2.45306,-1.94914 l 1.14815,-2.60739 a 4.99375,4.99375 0 0 1 8.94657,-0.38788 l 1.3687,2.496 a 3.3679,3.3679 0 0 0 2.6145,1.73263 l 2.83185,0.2861 a 4.99272,4.99272 0 0 1 3.1339,8.38851 l -1.95031,2.07351 a 3.36148,3.36148 0 0 0 -0.83849,3.01891 l 0.60171,2.78437 a 4.9927,4.9927 0 0 1 -7.00862,5.57168 l -2.57528,-1.21347 a 3.35983,3.35983 0 0 0 -3.13216,0.13461 l -2.46066,1.43289 a 4.99889,4.99889 0 0 1 -2.72181,0.68054 z"
     fill="#ffffff"
     id="path29" />
  <path
     d="m 237.32731,73.865874 a 5.04346,5.04346 0 0 1 -3.36337,-1.50156 5.17347,5.17347 0 0 1 -1.35388,-4.32291 l 0.32924,-2.5919 a 3.43188,3.43188 0 0 0 -1.11784,-2.99155 l -1.96831,-1.7588 a 5.13349,5.13349 0 0 1 -1.79914,-4.0285 4.99124,4.99124 0 0 1 4.06492,-4.71539 l 2.76479,-0.52514 a 3.43125,3.43125 0 0 0 2.5,-1.98821 l 1.03031,-2.33979 a 5.22514,5.22514 0 0 1 4.40614,-3.20619 4.96762,4.96762 0 0 1 4.64379,2.58361 l 1.35279,2.467 a 3.43328,3.43328 0 0 0 2.66529,1.76515 l 2.62461,0.26516 a 5.13094,5.13094 0 0 1 3.82473,2.20359 4.99253,4.99253 0 0 1 -0.51847,6.20233 l -1.92768,2.04945 a 3.43035,3.43035 0 0 0 -0.85423,3.07484 l 0.55556,2.57084 a 5.15516,5.15516 0 0 1 -0.90576,4.31869 4.97984,4.97984 0 0 1 -6.06361,1.43465 l -2.54866,-1.20092 a 3.4292,3.4292 0 0 0 -3.18733,0.13869 l -2.4321,1.41627 a 4.999,4.999 0 0 1 -2.72179,0.68059 z"
     fill="#ffffff"
     id="path30" />
  <path
     d="m 277.52645,73.695964 a 5.00673,5.00673 0 0 1 -4.74267,-5.62433 l 0.35882,-2.82482 a 3.3727,3.3727 0 0 0 -1.09769,-2.937 l -2.12185,-1.896 a 4.99258,4.99258 0 0 1 2.395,-8.62842 l 2.79727,-0.53131 a 3.36713,3.36713 0 0 0 2.45306,-1.94913 l 1.14814,-2.60739 a 4.99376,4.99376 0 0 1 8.94658,-0.38789 l 1.3687,2.496 a 3.3679,3.3679 0 0 0 2.61449,1.73263 l 2.83186,0.2861 a 4.99272,4.99272 0 0 1 3.1339,8.3885 l -1.95031,2.07352 a 3.36142,3.36142 0 0 0 -0.83849,3.0189 l 0.6017,2.78437 a 4.99269,4.99269 0 0 1 -7.00862,5.57168 l -2.57527,-1.21346 a 3.35979,3.35979 0 0 0 -3.13217,0.13461 l -2.46065,1.43289 a 4.999,4.999 0 0 1 -2.7218,0.68055 z"
     fill="#ffffff"
     id="path31" />
  <path
     d="m 316.62731,72.635154 a 5.00674,5.00674 0 0 1 -4.74267,-5.62432 l 0.35883,-2.82483 a 3.37275,3.37275 0 0 0 -1.09769,-2.937 l -2.12185,-1.896 a 4.99256,4.99256 0 0 1 2.395,-8.62841 l 2.79728,-0.53131 a 3.36713,3.36713 0 0 0 2.453,-1.94914 l 1.14815,-2.60739 a 4.99376,4.99376 0 0 1 8.94658,-0.38788 l 1.3687,2.496 a 3.36789,3.36789 0 0 0 2.61449,1.73263 l 2.83186,0.2861 a 4.99272,4.99272 0 0 1 3.1339,8.38851 l -1.95032,2.07351 a 3.36145,3.36145 0 0 0 -0.83848,3.01891 l 0.6017,2.78437 a 4.99269,4.99269 0 0 1 -7.00862,5.57168 l -2.57527,-1.21347 a 3.35985,3.35985 0 0 0 -3.13217,0.13461 l -2.46065,1.4329 a 4.999,4.999 0 0 1 -2.72177,0.68053 z"
     opacity="0.2"
     id="path32" />
  <path
     d="m 355.7281,71.574354 a 5.00675,5.00675 0 0 1 -4.74267,-5.62433 l 0.35883,-2.82482 a 3.37276,3.37276 0 0 0 -1.09769,-2.937 l -2.12185,-1.896 a 4.99256,4.99256 0 0 1 2.395,-8.62841 l 2.79728,-0.53131 a 3.36712,3.36712 0 0 0 2.453,-1.94913 l 1.14815,-2.6074 a 4.99376,4.99376 0 0 1 8.94658,-0.38788 l 1.36869,2.49605 a 3.368,3.368 0 0 0 2.6145,1.73263 l 2.83186,0.2861 a 4.99272,4.99272 0 0 1 3.1339,8.3885 l -1.95032,2.07352 a 3.36142,3.36142 0 0 0 -0.83848,3.0189 l 0.6017,2.78437 a 4.99269,4.99269 0 0 1 -7.00862,5.57168 l -2.57527,-1.21346 a 3.35979,3.35979 0 0 0 -3.13217,0.13461 l -2.46066,1.43289 a 4.999,4.999 0 0 1 -2.72176,0.68049 z"
     opacity="0.2"
     id="path33" />
  <path
     d="m 604.83998,405.19013 1.14386,-25.71944 a 83.06565,83.06565 0 0 1 38.74475,-9.8078 c -18.60845,15.21374 -16.283,44.54071 -28.899,64.99963 a 49.96442,49.96442 0 0 1 -36.63939,23.08917 l -15.5722,9.53437 a 83.72447,83.72447 0 0 1 17.647,-67.8451 80.87424,80.87424 0 0 1 14.863,-13.81018 c 3.7295,9.83419 8.71198,19.55935 8.71198,19.55935 z"
     fill="#f2f2f2"
     id="path34" />
  <path
     d="M 694.11658,469.53894 H 276.73465 a 1.190685,1.190685 0 1 1 0,-2.38137 h 417.38193 a 1.190685,1.190685 0 1 1 0,2.38137 z"
     fill="#cacaca"
     id="path35" />
</svg>
